<svg width="220" height="43" viewBox="0 0 220 43" fill="none" xmlns="http://www.w3.org/2000/svg">
<path fill-rule="evenodd" clip-rule="evenodd" d="M28.8327 0.924713L33.0027 6.38526L34.1475 7.884L37.2747 11.9931L37.7261 12.5717L44.8792 21.9365L48.4564 26.6242L53.464 33.1871L54.6618 34.7541C54.9336 35.11 55.0787 35.5442 55.0745 35.9895C55.0703 36.4348 54.9172 36.8663 54.6387 37.2172L50.175 42.8358L41.1252 35.8604L44.7963 31.2504C45.259 30.673 45.4747 29.9406 45.3975 29.2089C45.3204 28.4773 44.9563 27.8042 44.383 27.3329C43.8096 26.8617 43.0721 26.6294 42.3276 26.6857C41.583 26.742 40.8902 27.0822 40.3964 27.6341L40.3801 27.614L28.7416 42.2666L19.6904 35.2912L33.2121 18.268L34.0129 17.2608C34.2633 16.9786 34.4542 16.6501 34.5746 16.2944C34.6949 15.9388 34.7422 15.5632 34.7138 15.1894C34.6854 14.8156 34.5819 14.4511 34.4091 14.117C34.2364 13.783 33.998 13.4862 33.7077 13.2438C33.4175 13.0013 33.0812 12.8182 32.7184 12.705C32.3557 12.5918 31.9737 12.5508 31.5947 12.5843C31.2157 12.6179 30.8472 12.7254 30.5108 12.9005C30.1743 13.0756 29.8766 13.3149 29.6348 13.6044L29.6226 13.5883L15.5435 31.3093L9.03077 39.5129L0 32.5107L25.1072 0.889891C25.2965 0.650642 25.5317 0.450458 25.7995 0.300778C26.0673 0.151098 26.3623 0.0548537 26.6679 0.0175407C26.9734 -0.0197723 27.2835 0.002578 27.5803 0.0833149C27.877 0.164052 28.1548 0.301595 28.3976 0.488085C28.562 0.613572 28.7083 0.760455 28.8327 0.924713Z" fill="url(#paint0_linear_1_627)"/>
<path d="M62.1146 35.0351V16.1679C62.1057 15.7785 62.2506 15.4013 62.5179 15.1179C62.6426 14.9815 62.7949 14.8731 62.9646 14.7999C63.1344 14.7268 63.3178 14.6906 63.5027 14.6937H69.578C69.9848 14.7 70.3761 14.8503 70.6824 15.1179C71.0155 15.378 71.261 15.7338 71.3858 16.1374L75.7893 29.1218L80.1928 16.1374C80.3176 15.7338 80.5631 15.378 80.8962 15.1179C81.2029 14.851 81.594 14.7008 82.0006 14.6937H88.0759C88.2598 14.6901 88.4423 14.7261 88.6111 14.7993C88.7798 14.8725 88.9308 14.9812 89.0537 15.1179C89.3178 15.4028 89.46 15.7796 89.4499 16.1679V35.0351C89.4548 35.2272 89.4209 35.4183 89.3504 35.5971C89.2799 35.7758 89.1742 35.9386 89.0396 36.0757C88.912 36.2105 88.7576 36.3172 88.5865 36.389C88.4153 36.4608 88.231 36.4962 88.0454 36.4929H85.3536C85.1685 36.4955 84.9848 36.4597 84.8141 36.3879C84.6434 36.3161 84.4894 36.2098 84.3618 36.0757C84.2271 35.9386 84.1214 35.7758 84.051 35.5971C83.9805 35.4183 83.9466 35.2272 83.9515 35.0351V20.1804L78.6828 35.1265C78.5352 35.5111 78.2815 35.8459 77.9512 36.0922C77.6388 36.3464 77.2496 36.4876 76.8468 36.4929H74.7131C74.3122 36.4886 73.9249 36.3472 73.6157 36.0922C73.287 35.8421 73.0312 35.5087 72.8748 35.1265L67.6225 20.1804V35.0351C67.6273 35.2272 67.5934 35.4183 67.523 35.5971C67.4525 35.7758 67.3468 35.9386 67.2121 36.0757C67.0845 36.2105 66.9302 36.3172 66.759 36.389C66.5878 36.4608 66.4036 36.4962 66.2179 36.4929H63.5332C63.3467 36.4952 63.1617 36.4594 62.9895 36.3877C62.8173 36.3159 62.6616 36.2098 62.532 36.0757C62.3947 35.9402 62.2868 35.7778 62.215 35.5988C62.1432 35.4198 62.1091 35.2279 62.1146 35.0351Z" fill="#170F40"/>
<path d="M91.4103 35.4055L94.3365 24.1297C95.1291 21.0594 97.7028 19.5203 102.058 19.5125H108.325C108.46 19.5114 108.593 19.5405 108.715 19.5977C108.837 19.6549 108.944 19.7387 109.029 19.843C109.216 20.0557 109.318 20.3307 109.313 20.6141V35.4055C109.316 35.5503 109.289 35.6942 109.233 35.8278C109.178 35.9615 109.094 36.0819 108.989 36.1813C108.886 36.2825 108.764 36.3622 108.63 36.4158C108.496 36.4693 108.353 36.4955 108.208 36.493H106.014C105.868 36.4975 105.724 36.4722 105.588 36.4186C105.453 36.365 105.331 36.2842 105.228 36.1813C105.126 36.0748 105.046 35.949 104.994 35.8114C104.941 35.6738 104.916 35.527 104.921 35.3797V32.3891H96.6649L95.8864 35.3727C95.8112 35.6927 95.6262 35.9764 95.3636 36.1743C95.1233 36.3696 94.8244 36.4785 94.5147 36.4836H92.2262C92.1043 36.4951 91.9814 36.477 91.8679 36.4309C91.7544 36.3848 91.6538 36.312 91.5744 36.2188C91.4614 36.0873 91.394 35.9229 91.3821 35.75C91.3813 35.6346 91.3907 35.5193 91.4103 35.4055ZM97.5254 29.0445H104.933V22.8641H101.619C100.915 22.8502 100.228 23.0777 99.6709 23.5086C99.1135 23.9453 98.7181 24.5558 98.5477 25.243L97.5254 29.0445Z" fill="#170F40"/>
<path d="M111.219 21.7508V20.6375C111.214 20.4889 111.239 20.3408 111.293 20.2023C111.347 20.0637 111.429 19.9375 111.533 19.8313C111.635 19.7263 111.758 19.6437 111.894 19.5888C112.031 19.534 112.176 19.508 112.323 19.5125H127.079C127.225 19.5075 127.372 19.5333 127.508 19.5882C127.644 19.6431 127.767 19.7259 127.869 19.8313C127.973 19.9375 128.055 20.0637 128.109 20.2023C128.163 20.3408 128.188 20.4889 128.183 20.6375V21.7508C128.189 21.8917 128.167 22.0323 128.118 22.1646C128.069 22.2968 127.994 22.4181 127.899 22.5216C127.803 22.625 127.687 22.7085 127.559 22.7673C127.431 22.8261 127.292 22.859 127.151 22.8641H121.885V35.4055C121.889 35.5498 121.862 35.6933 121.807 35.8268C121.752 35.9604 121.67 36.0811 121.566 36.1813C121.465 36.2824 121.344 36.3621 121.211 36.4157C121.078 36.4692 120.936 36.4955 120.792 36.493H118.595C118.452 36.4951 118.31 36.4686 118.177 36.4151C118.044 36.3616 117.923 36.2821 117.822 36.1813C117.719 36.0804 117.637 35.9596 117.582 35.8262C117.527 35.6928 117.5 35.5497 117.503 35.4055V22.8641H112.316C112.031 22.8717 111.755 22.7661 111.548 22.5707C111.341 22.3752 111.22 22.1056 111.212 21.8211V21.7508H111.219Z" fill="#170F40"/>
<path d="M128.641 21.7508V20.6375C128.637 20.489 128.663 20.3413 128.717 20.2029C128.771 20.0645 128.852 19.9381 128.955 19.8313C129.057 19.7263 129.18 19.6437 129.316 19.5888C129.452 19.534 129.598 19.508 129.745 19.5125H144.501C144.648 19.5075 144.794 19.5333 144.931 19.5882C145.067 19.643 145.191 19.7259 145.293 19.8313C145.396 19.9379 145.477 20.0643 145.531 20.2028C145.584 20.3413 145.61 20.4891 145.605 20.6375V21.7508C145.616 22.0346 145.515 22.3112 145.322 22.52C145.129 22.7288 144.862 22.8525 144.578 22.8641H139.316V35.4055C139.32 35.5501 139.293 35.6937 139.238 35.8273C139.182 35.9609 139.1 36.0815 138.995 36.1813C138.894 36.2825 138.773 36.3622 138.64 36.4157C138.507 36.4693 138.365 36.4956 138.221 36.493H136.017C135.874 36.4952 135.732 36.4687 135.599 36.4152C135.466 36.3616 135.345 36.2821 135.243 36.1813C135.14 36.0804 135.059 35.9596 135.004 35.8262C134.949 35.6929 134.922 35.5497 134.925 35.4055V22.8641H129.743C129.458 22.8717 129.182 22.7662 128.975 22.5707C128.768 22.3752 128.647 22.1057 128.638 21.8211L128.641 21.7508Z" fill="#170F40"/>
<path d="M147.507 35.3563V20.6141C147.506 20.469 147.534 20.3253 147.589 20.1912C147.645 20.0572 147.726 19.9354 147.829 19.8329C147.932 19.7305 148.054 19.6494 148.188 19.5944C148.322 19.5394 148.466 19.5116 148.611 19.5125H162.016C162.161 19.51 162.305 19.5382 162.438 19.5951C162.572 19.6521 162.691 19.7365 162.79 19.843C162.894 19.9471 162.976 20.0711 163.031 20.2076C163.087 20.3441 163.114 20.4903 163.111 20.6375V21.7508C163.114 21.8969 163.086 22.0421 163.031 22.1775C162.976 22.3128 162.894 22.4356 162.79 22.5383C162.69 22.6431 162.57 22.7261 162.437 22.7822C162.304 22.8383 162.161 22.8662 162.016 22.8641H151.884V26.3094H160.605C160.749 26.3066 160.893 26.3341 161.026 26.3902C161.159 26.4464 161.279 26.5298 161.378 26.6352C161.482 26.738 161.564 26.8608 161.619 26.9962C161.673 27.1316 161.7 27.2767 161.697 27.4227V28.5359C161.7 28.682 161.673 28.827 161.619 28.9624C161.564 29.0978 161.482 29.2206 161.378 29.3234C161.279 29.4288 161.159 29.5123 161.026 29.5684C160.893 29.6245 160.749 29.652 160.605 29.6492H151.884V33.1414H161.99C162.132 33.1398 162.272 33.1675 162.402 33.2227C162.531 33.278 162.649 33.3597 162.745 33.4625C162.848 33.5646 162.928 33.6864 162.982 33.8205C163.036 33.9547 163.063 34.0984 163.06 34.243V35.3797C163.062 35.5266 163.034 35.6724 162.978 35.8083C162.922 35.9441 162.839 36.067 162.734 36.1695C162.633 36.2738 162.512 36.3563 162.378 36.412C162.244 36.4676 162.1 36.4952 161.955 36.493H148.606C148.461 36.4951 148.317 36.4675 148.183 36.4118C148.048 36.3562 147.927 36.2738 147.826 36.1695C147.72 36.0626 147.637 35.9354 147.583 35.7956C147.528 35.6558 147.502 35.5063 147.507 35.3563Z" fill="#170F40"/>
<path d="M182.558 35.9844C182.558 36.3242 182.361 36.493 181.965 36.493H179.175C178.828 36.4762 178.492 36.3643 178.204 36.1696C177.875 35.9747 177.598 35.7038 177.395 35.3797L175.409 32.2297C174.598 30.9297 173.614 30.2797 172.457 30.2797H169.62V35.3703C169.623 35.5168 169.595 35.6624 169.54 35.7981C169.485 35.9339 169.403 36.057 169.299 36.1602C169.2 36.2646 169.08 36.3473 168.947 36.403C168.814 36.4586 168.671 36.4861 168.527 36.4836H166.34C166.195 36.4858 166.051 36.4582 165.917 36.4026C165.783 36.347 165.662 36.2645 165.561 36.1602C165.456 36.0578 165.372 35.9349 165.316 35.7991C165.26 35.6632 165.233 35.5173 165.235 35.3703V20.6281C165.235 20.4819 165.264 20.3371 165.32 20.202C165.376 20.0669 165.458 19.9441 165.561 19.8406C165.658 19.7344 165.777 19.6499 165.909 19.593C166.041 19.536 166.184 19.5078 166.328 19.5102H175.92C177.698 19.5102 179.153 19.9953 180.286 20.9656C181.42 21.936 181.988 23.2469 181.991 24.8984C181.991 27.1953 180.53 28.636 177.609 29.2203C178.102 29.4137 178.544 29.7195 178.898 30.1133C179.407 30.6847 179.862 31.3014 180.258 31.9555L182.369 35.3774C182.482 35.5602 182.548 35.7692 182.558 35.9844ZM169.629 26.9375H174.582C175.314 26.9542 176.04 26.7874 176.692 26.4524C176.969 26.2988 177.2 26.0739 177.36 25.8011C177.521 25.5283 177.606 25.2174 177.606 24.9008C177.606 24.5842 177.521 24.2733 177.36 24.0005C177.2 23.7277 176.969 23.5028 176.692 23.3492C176.04 23.0142 175.314 22.8474 174.582 22.8641H169.629V26.9375Z" fill="#170F40"/>
<path d="M184.488 35.0329V16.1C184.485 15.9131 184.521 15.7276 184.593 15.555C184.664 15.3825 184.771 15.2265 184.906 15.0969C185.037 14.9649 185.193 14.8606 185.365 14.7901C185.537 14.7196 185.721 14.6845 185.907 14.6867H203.134C203.32 14.6837 203.505 14.72 203.676 14.7931C203.848 14.8662 204.002 14.9745 204.128 15.111C204.262 15.2447 204.367 15.4038 204.437 15.579C204.508 15.7542 204.542 15.9417 204.539 16.1305V17.5602C204.542 17.7479 204.508 17.9344 204.437 18.1085C204.367 18.2825 204.262 18.4404 204.128 18.5727C204.001 18.7074 203.846 18.8141 203.675 18.8859C203.504 18.9578 203.32 18.9932 203.134 18.9899H190.118V24.3453H200.707C200.893 24.3424 201.078 24.3786 201.249 24.4517C201.421 24.5248 201.575 24.6331 201.701 24.7696C201.833 24.9016 201.937 25.0585 202.008 25.2311C202.078 25.4037 202.113 25.5886 202.112 25.775V27.2188C202.115 27.4065 202.081 27.5931 202.01 27.7671C201.94 27.9411 201.835 28.099 201.701 28.2313C201.574 28.3659 201.419 28.4726 201.248 28.5448C201.077 28.617 200.893 28.6531 200.707 28.6508H190.118V35.0375C190.124 35.2301 190.091 35.4219 190.02 35.6012C189.95 35.7805 189.843 35.9436 189.708 36.0805C189.58 36.2147 189.426 36.3211 189.256 36.3929C189.085 36.4647 188.901 36.5004 188.716 36.4977H185.902C185.716 36.5 185.531 36.4642 185.359 36.3924C185.186 36.3207 185.031 36.2145 184.901 36.0805C184.765 35.9429 184.658 35.7791 184.587 35.599C184.516 35.4189 184.483 35.2263 184.488 35.0329Z" fill="#005B97"/>
<path d="M207.429 35.3985V20.5321C207.427 20.384 207.455 20.2369 207.51 20.0996C207.566 19.9624 207.648 19.8376 207.753 19.7328C207.853 19.626 207.974 19.5412 208.108 19.4839C208.243 19.4266 208.388 19.398 208.534 19.4H210.696C210.845 19.396 210.993 19.4236 211.13 19.4809C211.267 19.5383 211.391 19.6242 211.493 19.7328C211.596 19.8384 211.678 19.9634 211.732 20.1006C211.787 20.2377 211.814 20.3844 211.812 20.5321V35.3727C211.812 35.669 211.694 35.9533 211.485 36.1632C211.276 36.3732 210.992 36.4918 210.696 36.493H208.527C208.382 36.4953 208.239 36.4686 208.105 36.4147C207.971 36.3608 207.849 36.2806 207.746 36.179C207.643 36.0772 207.562 35.9556 207.507 35.8214C207.453 35.6872 207.426 35.5433 207.429 35.3985Z" fill="#005B97"/>
<path d="M216.766 34.0297V34.4493H215.955V36.5586H215.451V34.4493H214.64V34.0297H216.766ZM219.505 36.5633L219.411 35.0727C219.411 34.8782 219.411 34.6344 219.395 34.3696H219.367C219.301 34.6039 219.226 34.8922 219.151 35.1243L218.696 36.5305H218.173L217.704 35.0868C217.657 34.8922 217.582 34.5922 217.526 34.3696H217.5C217.5 34.6039 217.5 34.8383 217.482 35.0727L217.388 36.5633H216.919L217.106 34.0297H217.857L218.298 35.2696C218.351 35.4641 218.398 35.6516 218.464 35.9118C218.53 35.6774 218.586 35.4641 218.64 35.2789L219.078 34.0297H219.805L220 36.5633H219.505Z" fill="#170F40"/>
<defs>
<linearGradient id="paint0_linear_1_627" x1="0" y1="21.4195" x2="55.0752" y2="21.4195" gradientUnits="userSpaceOnUse">
<stop stop-color="#CCE0F4"/>
<stop offset="0.06" stop-color="#C3DCF2"/>
<stop offset="0.17" stop-color="#A9D2EE"/>
<stop offset="0.31" stop-color="#80C2E7"/>
<stop offset="0.46" stop-color="#47ACDE"/>
<stop offset="0.57" stop-color="#1E9CD7"/>
<stop offset="0.87" stop-color="#0075BE"/>
<stop offset="0.99" stop-color="#005B97"/>
</linearGradient>
</defs>
</svg>
