<svg width="764" height="764" viewBox="0 0 764 764" fill="none" xmlns="http://www.w3.org/2000/svg">
<path d="M39.6006 734.713L251.993 652.711" stroke="#170F40" stroke-width="0.75" stroke-miterlimit="10"/>
<path d="M265.617 652.838L679.45 658.059" stroke="#170F40" stroke-width="0.75" stroke-miterlimit="10"/>
<path d="M172.918 192.146C206.041 192.146 232.892 165.295 232.892 132.172C232.892 99.0493 206.041 72.198 172.918 72.198C139.796 72.198 112.944 99.0493 112.944 132.172C112.944 165.295 139.796 192.146 172.918 192.146Z" fill="#F4ECFF"/>
<path d="M191.891 98.938L167.316 139.175" stroke="#170F40" stroke-width="0.75" stroke-miterlimit="10"/>
<path d="M206.153 139.557H167.316" stroke="#170F40" stroke-width="0.75" stroke-miterlimit="10"/>
<path d="M191.891 98.938L183.742 101.739" stroke="#170F40" stroke-width="0.75" stroke-miterlimit="10"/>
<path d="M192.528 107.342L191.891 98.938" stroke="#170F40" stroke-width="0.75" stroke-miterlimit="10"/>
<path d="M200.677 133.7L206.153 139.557" stroke="#170F40" stroke-width="0.75" stroke-miterlimit="10"/>
<path d="M200.932 145.287L206.152 139.557" stroke="#170F40" stroke-width="0.75" stroke-miterlimit="10"/>
<path d="M234.039 614.256C234.039 617.694 244.989 680.597 244.989 680.597L299.106 678.177L303.69 614.256H234.039Z" fill="#170F40"/>
<path d="M268.546 620.75C287.674 620.75 303.181 618.299 303.181 615.275C303.181 612.251 287.674 609.799 268.546 609.799C249.418 609.799 233.912 612.251 233.912 615.275C233.912 618.299 249.418 620.75 268.546 620.75Z" fill="white" stroke="#170F40" stroke-width="0.75" stroke-miterlimit="10"/>
<path d="M240.533 543.713C236.331 571.09 260.652 589.935 266.382 614.893C266.891 617.312 270.584 616.293 270.074 613.874C264.599 589.935 240.278 570.708 244.226 544.732C244.608 542.313 240.915 541.294 240.533 543.713Z" fill="#5492ED"/>
<path d="M269.31 609.927C265.49 601.523 263.198 592.737 264.981 583.569C266.381 575.929 269.947 568.798 273.257 561.795C278.605 550.335 283.317 538.365 280.388 525.505C279.879 523.085 276.186 524.104 276.695 526.523C280.388 543.331 269.819 557.847 264.217 572.873C258.996 586.497 260.142 598.721 266.127 611.964C267.018 614.001 270.329 612.091 269.31 609.927Z" fill="#5492ED"/>
<path d="M252.502 498.637C248.3 509.079 250.083 520.157 254.158 530.343C258.742 541.931 270.456 557.083 264.726 569.944C263.708 572.109 267.018 574.146 268.037 571.854C272.748 561.285 267.655 550.844 263.198 541.167C257.086 528.051 250.338 514.045 256.195 499.656C257.086 497.364 253.394 496.345 252.502 498.637Z" fill="#5492ED"/>
<path d="M262.816 540.021C266.636 533.272 270.329 526.269 271.602 518.374C273.003 510.097 271.475 501.693 270.074 493.417C269.692 490.997 266 492.016 266.382 494.435C267.782 502.075 269.183 509.97 267.782 517.737C266.509 525.123 263.071 531.617 259.506 537.983C258.36 540.275 261.67 542.185 262.816 540.021Z" fill="#5492ED"/>
<path d="M263.962 587.389C274.149 585.606 279.115 576.056 282.807 567.397C283.826 565.105 280.515 563.195 279.497 565.487C276.059 573.255 272.111 582.041 262.943 583.696C260.524 584.205 261.543 587.898 263.962 587.389Z" fill="#5492ED"/>
<path d="M246.008 568.925C243.843 568.161 238.368 565.997 234.166 560.394C229.327 554.027 229.073 547.279 229.073 545.114C231.492 546.515 234.548 548.679 237.604 551.863C243.461 558.357 245.371 565.36 246.008 568.925Z" fill="#5492ED"/>
<path d="M241.933 547.788C240.278 545.623 237.731 541.294 236.84 535.437C235.439 525.25 240.278 517.61 241.679 515.573C243.207 517.865 244.862 521.303 245.753 525.759C247.918 536.328 243.461 544.987 241.933 547.788Z" fill="#5492ED"/>
<path d="M272.494 558.611C273.894 555.301 276.568 549.825 281.916 544.732C286.373 540.53 290.83 538.238 293.758 536.965C293.758 538.62 293.758 545.369 288.665 551.226C282.553 558.484 273.767 558.611 272.494 558.611Z" fill="#5492ED"/>
<path d="M261.797 583.569C259.887 581.531 257.341 578.093 255.685 573.382C252.629 564.469 254.794 556.574 255.685 553.773C257.595 556.065 260.524 560.394 262.052 566.761C264.089 574.401 262.689 580.64 261.797 583.569Z" fill="#5492ED"/>
<path d="M252.12 508.187C250.592 506.405 247.409 502.33 246.645 496.345C245.244 486.286 251.229 478.901 252.248 477.627C253.521 479.41 254.794 481.575 255.686 484.121C259.251 495.327 253.521 505.641 252.12 508.187Z" fill="#5492ED"/>
<path d="M268.419 498.51C268.037 498.001 263.453 491.125 266.636 483.23C269.565 475.845 276.695 473.807 277.587 473.553C278.223 475.208 280.006 480.301 278.351 486.413C276.059 494.308 269.692 497.873 268.419 498.51Z" fill="#5492ED"/>
<path d="M515.445 72.0707C514.554 85.186 513.026 99.32 510.734 114.218C507.805 133.445 503.858 151.145 499.656 166.934C509.206 169.353 519.647 171.518 530.725 173.428C552.881 176.993 573.254 178.267 591.081 178.139C592.736 165.024 594.01 150.89 594.646 135.992C595.665 112.308 595.028 90.534 593.5 71.052C567.27 71.3067 541.294 71.6887 515.445 72.0707Z" fill="#D6D6D6"/>
<path d="M493.671 21.774C493.798 33.1067 492.78 48.132 488.45 65.0673C483.102 85.95 474.698 102.121 467.95 113.072C478.264 118.165 494.944 124.914 516.591 127.079C535.691 128.989 551.608 126.569 562.304 124.15C565.742 117.401 568.925 109.761 571.726 101.357C582.422 68.2507 580.003 38.2 576.438 18.8453C548.806 19.7367 521.302 20.7553 493.671 21.774Z" fill="#EDEDED"/>
<path d="M582.168 140.067C584.46 154.455 585.861 172.791 583.951 193.929C582.805 206.662 580.64 218.122 578.093 227.927C587.261 229.837 597.703 231.365 609.163 232.001C633.865 233.402 655.003 230.473 671.174 226.781C669.901 214.811 668.882 202.333 668.245 189.345C667.099 165.533 667.227 143.25 668.245 122.622C639.468 128.352 610.818 134.209 582.168 140.067Z" fill="#EDEDED"/>
<path d="M554.664 43.93C554.918 54.626 554.409 66.7227 552.881 79.5833C549.952 104.286 543.84 125.296 537.601 141.595C552.881 146.688 573.382 151.781 597.957 153.309C615.911 154.455 631.828 153.309 644.816 151.527C644.561 134.591 644.179 117.401 643.67 99.9567C643.033 81.1113 642.269 62.5207 641.378 44.312C612.346 44.4393 583.568 44.1847 554.664 43.93Z" fill="#FF9800"/>
<path d="M589.171 53.48C594.901 53.862 600.758 53.7347 606.488 53.3527C608.908 53.2253 608.908 49.4053 606.488 49.5327C600.758 49.9147 594.901 50.042 589.171 49.66C586.625 49.4053 586.625 53.2253 589.171 53.48Z" fill="white"/>
<path d="M524.104 31.1966C529.961 31.1966 535.691 31.0693 541.421 30.4326C543.841 30.178 543.841 26.358 541.421 26.6126C535.691 27.122 529.834 27.3766 524.104 27.3766C521.557 27.3766 521.557 31.1966 524.104 31.1966Z" fill="#170F40"/>
<path d="M498.382 43.2933C513.662 42.6567 528.815 42.2747 544.095 42.1473C544.732 42.1473 544.732 41.1287 544.095 41.1287C528.815 41.256 513.535 41.638 498.382 42.2747C497.746 42.402 497.746 43.4207 498.382 43.2933Z" fill="#170F40"/>
<path d="M500.42 51.3153C515.955 51.6973 531.489 51.57 546.897 50.9333C547.533 50.9333 547.533 49.9147 546.897 49.9147C531.362 50.424 515.827 50.5513 500.42 50.2967C499.783 50.424 499.783 51.3153 500.42 51.3153Z" fill="#170F40"/>
<path d="M497.236 61.502C506.786 61.3747 516.464 61.502 526.014 61.884C526.65 61.884 526.65 60.9927 526.014 60.8653C516.464 60.356 506.786 60.2287 497.236 60.4833C496.6 60.6107 496.6 61.502 497.236 61.502Z" fill="#170F40"/>
<path d="M498 69.0147C514.171 70.1607 530.343 70.7974 546.514 70.7974C547.151 70.7974 547.151 69.906 546.514 69.7787C530.343 69.7787 514.171 69.142 498 67.996C497.491 67.996 497.491 68.8874 498 69.0147Z" fill="#170F40"/>
<path d="M493.926 80.0927C506.532 82.0027 519.138 82.894 531.999 82.7667C532.635 82.7667 532.635 81.748 531.999 81.748C519.265 81.8754 506.787 81.1114 494.181 79.074C493.544 79.074 493.289 79.9654 493.926 80.0927Z" fill="#170F40"/>
<path d="M501.184 89.8973C513.153 91.5527 524.995 92.444 537.091 92.826C537.728 92.826 537.728 91.9347 537.091 91.8073C525.122 91.4253 513.153 90.534 501.184 88.8787C500.547 88.8787 500.547 89.77 501.184 89.8973Z" fill="#170F40"/>
<path d="M563.832 66.3407C581.658 66.468 599.612 66.3407 617.439 66.086C618.076 66.086 618.076 65.0673 617.439 65.0673C599.612 65.322 581.658 65.322 563.832 65.322C563.322 65.322 563.322 66.3407 563.832 66.3407Z" fill="white"/>
<path d="M561.922 74.872C569.944 75.636 577.966 75.8907 585.988 75.636C586.625 75.636 586.625 74.6173 585.988 74.6173C577.966 74.872 569.944 74.6173 561.922 73.8533C561.285 73.8533 561.285 74.7447 561.922 74.872Z" fill="white"/>
<path d="M563.45 82.894C578.602 83.4033 593.628 83.9127 608.78 84.422C609.417 84.422 609.417 83.5307 608.78 83.4033C593.628 82.894 578.602 82.3847 563.45 81.8753C562.813 81.8753 562.813 82.894 563.45 82.894Z" fill="white"/>
<path d="M569.052 92.1893C573.891 92.3167 578.729 92.5713 583.695 92.6987C584.332 92.6987 584.332 91.8073 583.695 91.68C578.857 91.5527 574.018 91.298 569.052 91.1707C568.416 91.298 568.416 92.1893 569.052 92.1893Z" fill="white"/>
<path d="M565.105 99.5747C582.932 99.4473 600.886 99.9567 618.712 100.848C619.349 100.848 619.349 99.9567 618.712 99.8293C600.886 98.8107 582.932 98.4287 565.105 98.556C564.468 98.556 564.468 99.5747 565.105 99.5747Z" fill="white"/>
<path d="M563.068 108.106C585.479 109.125 607.762 110.016 630.173 111.035C630.809 111.035 630.809 110.143 630.173 110.016C607.762 108.997 585.479 108.106 563.068 107.087C562.431 107.215 562.431 108.106 563.068 108.106Z" fill="white"/>
<path d="M560.776 118.802C569.562 119.693 578.348 120.203 587.261 120.457C587.898 120.457 587.898 119.566 587.261 119.439C578.475 119.184 569.562 118.675 560.776 117.783C560.139 117.783 560.139 118.675 560.776 118.802Z" fill="white"/>
<path d="M559.121 128.225C577.202 129.371 595.156 130.771 613.237 132.681C613.874 132.681 613.874 131.79 613.237 131.663C595.283 129.88 577.202 128.352 559.121 127.206C558.484 127.206 558.484 128.225 559.121 128.225Z" fill="white"/>
<path d="M595.029 166.425C603.433 167.825 612.219 167.189 620.623 166.679C629.027 166.297 637.303 165.151 645.453 162.859C646.089 162.732 645.835 161.713 645.198 161.968C637.176 164.26 629.027 165.279 620.623 165.788C612.346 166.17 603.433 166.807 595.283 165.533C594.774 165.406 594.519 166.297 595.029 166.425Z" fill="#170F40"/>
<path d="M507.551 161.204C513.281 162.095 518.883 163.114 524.613 164.005C525.25 164.133 525.505 163.241 524.868 163.114C519.138 162.223 513.535 161.204 507.805 160.313C507.296 160.185 507.041 161.204 507.551 161.204Z" fill="#170F40"/>
<path d="M532.89 166.552C546.769 168.335 560.776 168.971 574.782 168.462C575.419 168.462 575.419 167.443 574.782 167.443C560.776 168.08 546.769 167.443 532.89 165.533C532.253 165.533 532.253 166.552 532.89 166.552Z" fill="#170F40"/>
<path d="M508.824 151.654C526.905 156.111 545.114 159.167 563.705 160.695C564.341 160.695 564.341 159.803 563.705 159.676C545.241 158.148 527.033 155.092 509.079 150.635C508.442 150.635 508.187 151.527 508.824 151.654Z" fill="#170F40"/>
<path d="M514.045 145.797C524.231 148.089 534.545 150.126 544.859 151.781C545.496 151.909 545.751 151.017 545.114 150.89C534.8 149.235 524.613 147.325 514.299 144.905C513.663 144.778 513.408 145.669 514.045 145.797Z" fill="#170F40"/>
<path d="M594.901 176.357C610.181 178.139 625.334 178.139 640.614 176.357C641.25 176.229 641.25 175.338 640.614 175.338C625.334 177.121 610.181 177.121 594.901 175.338C594.264 175.338 594.264 176.229 594.901 176.357Z" fill="#170F40"/>
<path d="M590.954 186.925C614.128 189.854 637.303 188.835 659.968 183.615C660.605 183.487 660.35 182.596 659.714 182.723C637.048 187.817 613.874 188.835 590.954 185.907C590.317 185.907 590.317 186.798 590.954 186.925Z" fill="#170F40"/>
<path d="M592.991 197.749C610.308 204.752 630.172 201.441 648.254 200.423C648.89 200.423 648.89 199.404 648.254 199.404C630.172 200.423 610.436 203.733 593.246 196.73C592.609 196.603 592.354 197.621 592.991 197.749Z" fill="#170F40"/>
<path d="M598.976 210.864C616.293 214.557 636.157 216.339 653.092 210.482C653.729 210.227 653.474 209.336 652.838 209.591C636.157 215.321 616.166 213.538 599.23 209.973C598.594 209.845 598.339 210.737 598.976 210.864Z" fill="#170F40"/>
<path d="M355.26 725.163C352.204 726.564 348.384 728.474 343.928 730.766C334.378 735.859 310.312 748.465 311.458 752.158C312.349 754.832 326.228 754.195 376.398 742.735C375.252 736.496 373.978 730.257 372.832 724.017C366.847 724.399 360.99 724.781 355.26 725.163Z" fill="#EB506E"/>
<path d="M349.403 729.111C348.129 728.729 346.983 728.219 345.965 727.328C345.583 727.073 343.036 723.89 345.073 723.89C345.71 723.89 346.983 725.673 347.238 726.182C347.875 727.328 348.129 728.601 348.002 729.875C348.002 730.384 348.511 730.511 348.766 730.257C349.403 729.747 352.331 739.297 355.133 735.223C357.297 732.039 352.713 728.856 350.039 728.601C349.403 728.601 349.403 729.493 350.039 729.62C351.313 729.747 352.459 730.257 353.35 731.148C353.605 731.53 353.859 731.785 354.114 732.167C353.477 732.803 352.968 733.567 352.331 734.204C351.822 734.204 350.294 730.511 349.912 730.002C349.275 729.238 348.766 728.983 348.002 729.62C348.257 729.747 348.511 729.875 348.766 730.002C348.893 727.965 348.257 726.055 346.983 724.527C346.219 723.635 344.691 722.235 343.545 722.999C342.272 723.89 343.163 725.673 343.927 726.691C345.201 728.474 346.856 729.493 348.893 730.129C349.657 730.129 349.912 729.238 349.403 729.111Z" fill="white"/>
<path d="M331.449 737.897C333.104 738.024 334.505 738.915 335.142 740.443C335.396 740.953 336.288 740.571 335.906 739.934C335.014 738.151 333.359 737.005 331.322 736.878C330.812 736.878 330.812 737.897 331.449 737.897Z" fill="white"/>
<path d="M335.396 735.859C336.924 736.114 338.198 736.878 338.834 738.279C339.089 738.788 339.98 738.279 339.598 737.769C338.707 736.241 337.306 735.223 335.524 734.968C335.014 734.841 334.76 735.732 335.396 735.859Z" fill="white"/>
<path d="M338.834 733.313C340.872 733.822 342.654 734.968 343.673 736.878C343.928 737.387 344.819 736.878 344.437 736.369C343.291 734.331 341.381 732.931 339.089 732.421C338.58 732.294 338.325 733.185 338.834 733.313Z" fill="white"/>
<path d="M344.819 746.81C354.114 746.173 363.027 742.608 371.941 739.934C372.577 739.807 372.323 738.788 371.686 739.043C362.9 741.717 353.987 745.155 344.819 745.791C344.182 745.919 344.182 746.81 344.819 746.81Z" fill="white"/>
<path d="M388.367 402.755C386.202 408.613 383.019 417.144 379.454 427.203C374.106 441.974 363.282 473.171 350.549 513.79C347.111 524.741 342.782 539.129 337.816 556.192C337.561 559.885 337.179 565.487 337.561 572.236C337.943 581.277 339.089 587.898 339.471 590.317C340.744 597.83 339.726 594.265 344.31 634.757C348.766 674.739 353.987 715.613 355.133 725.163C356.024 725.927 359.08 728.856 364.046 729.238C368.121 729.493 371.177 727.965 372.323 727.328C374.615 695.24 377.798 661.879 382 627.371C385.056 602.032 388.494 577.457 392.314 553.645C401.355 539.893 410.523 526.141 419.691 512.389C436.626 486.923 453.562 461.456 470.624 436.117C471.77 433.952 490.106 398.299 477.882 386.711C473.808 382.891 467.314 382.637 450.378 385.693C434.716 388.494 413.452 393.333 388.367 402.755Z" fill="#B1CEFC"/>
<path d="M627.244 678.814C627.117 682.634 626.862 687.727 626.862 693.839C626.607 718.033 626.353 739.552 630.555 740.571C633.865 741.462 641.505 729.747 659.714 679.323C653.347 675.503 646.981 671.683 640.614 667.863C636.157 671.556 631.701 675.249 627.244 678.814Z" fill="#EB506E"/>
<path d="M631.956 683.78C629.664 684.035 628.008 685.308 626.48 687.091C625.589 688.237 623.424 690.656 624.316 692.311C625.08 693.712 626.608 692.821 627.626 692.057C629.664 690.274 631.064 687.982 631.828 685.308C631.574 685.308 631.192 685.308 630.937 685.308C631.574 687.218 631.828 690.401 634.12 691.165C635.394 691.675 636.667 691.038 637.304 690.019C639.341 686.836 636.03 682.634 632.592 683.398C631.956 683.525 632.21 684.417 632.847 684.289C634.375 684.035 635.521 684.544 636.285 685.817C637.558 687.6 636.54 688.746 633.229 689.001C632.465 688.109 632.338 686.072 631.956 684.926C631.828 684.544 631.192 684.417 631.064 684.926C630.682 686.072 630.3 687.345 629.536 688.364C629.154 689.001 628.645 689.637 628.136 690.147C627.372 690.911 627.244 691.42 626.353 690.656C625.462 689.892 625.716 689.892 626.353 689.128C626.735 688.619 626.99 688.109 627.372 687.6C628.645 686.072 630.046 684.926 631.956 684.671C632.592 684.671 632.592 683.653 631.956 683.78Z" fill="white"/>
<path d="M627.371 698.296C629.281 697.405 631.319 697.15 633.483 697.532C634.12 697.659 634.375 696.768 633.738 696.641C631.319 696.259 629.154 696.513 626.862 697.532C626.353 697.659 626.862 698.551 627.371 698.296Z" fill="white"/>
<path d="M627.754 702.243C629.154 701.352 630.682 701.097 632.21 701.479C632.847 701.607 633.102 700.715 632.465 700.588C630.682 700.206 628.772 700.461 627.244 701.479C626.735 701.734 627.244 702.498 627.754 702.243Z" fill="white"/>
<path d="M627.754 706.827C628.9 705.936 630.3 705.681 631.701 706.191C632.338 706.445 632.592 705.427 631.956 705.299C630.3 704.79 628.518 705.045 627.117 706.191C626.608 706.573 627.244 707.209 627.754 706.827Z" fill="white"/>
<path d="M655.13 679.578C649.782 693.712 644.562 707.846 639.214 721.98C638.959 722.617 639.978 722.744 640.105 722.235C645.453 708.101 650.674 693.967 656.022 679.833C656.276 679.323 655.385 679.069 655.13 679.578Z" fill="white"/>
<path d="M421.346 403.265C420.964 403.774 419.181 407.085 420.2 411.032C420.964 413.706 422.747 415.361 423.511 415.871C425.421 415.743 428.604 415.998 431.533 418.035C434.334 420.2 435.353 423.129 435.862 425.039C439.937 438.409 442.101 445.157 442.229 445.794C443.757 452.67 446.176 459.164 448.086 465.913C454.198 487.687 461.838 514.299 472.789 543.713C474.953 549.443 478.391 558.357 482.975 569.435C485.649 571.727 489.597 575.165 494.435 579.367C515.445 597.575 539.384 617.821 550.08 626.48C565.487 638.959 590.827 657.804 629.791 680.342C630.937 680.342 633.611 680.215 636.285 678.432C640.996 675.376 641.378 669.901 641.378 669.137C636.794 662.77 632.083 656.403 627.499 650.037C600.631 613.237 573.637 576.438 546.769 539.639C542.949 526.651 539.766 515.063 537.092 505.513C531.235 483.867 521.939 449.869 512.644 405.939C509.843 392.696 507.551 381.109 505.895 371.813C500.293 372.705 494.435 373.851 488.451 375.251C461.583 382.127 439.045 392.569 421.346 403.265Z" fill="#B1CEFC"/>
<path d="M423.765 416.38C434.589 414.597 437.008 429.623 439.173 436.881C440.955 442.993 442.738 449.105 444.521 455.217C448.341 468.205 451.906 481.193 455.853 494.181C463.239 518.883 471.388 543.459 481.829 567.015C482.084 567.525 482.848 567.143 482.593 566.506C469.86 537.856 460.692 507.933 451.906 477.882C447.704 463.366 443.629 448.85 439.173 434.334C436.753 426.567 434.079 413.579 423.256 415.361C422.874 415.489 423.129 416.38 423.765 416.38Z" fill="white"/>
<path d="M197.876 371.177C196.603 371.686 194.947 372.45 192.91 373.469C189.981 374.997 186.925 376.779 183.869 379.071C179.795 382.255 179.031 383.783 178.776 384.801C178.649 385.183 177.885 387.857 179.158 389.003C179.922 389.64 181.323 389.64 187.053 387.475C190.236 386.329 192.783 385.183 194.565 384.292C196.73 385.693 198.895 387.093 201.059 388.621C203.479 386.711 205.771 384.674 208.19 382.764C207.553 380.981 206.28 378.307 203.733 375.506C201.569 373.341 199.404 371.941 197.876 371.177Z" fill="#F7CD5B"/>
<path d="M355.642 226.908C342.017 209.209 317.569 212.137 316.423 212.265C315.532 212.774 314.641 213.283 313.749 213.665C312.985 215.575 311.839 218.249 310.566 221.305C304.836 234.93 299.361 246.645 294.267 256.959C283.062 280.006 277.459 291.466 271.729 299.233C268.164 304.072 265.108 307.383 262.561 309.802C255.813 316.296 250.974 321.389 248.555 323.681C238.623 332.849 220.287 349.657 197.239 370.795C198.385 371.177 201.314 372.195 203.606 374.997C206.917 379.199 206.407 384.037 206.28 384.929C236.967 371.304 259.76 360.608 268.801 356.024C273.385 353.732 278.733 350.549 281.279 349.403C284.463 347.747 288.41 345.583 293.249 342.272C294.777 341.126 297.196 339.471 299.997 337.179C308.656 330.175 313.622 324.191 323.809 312.221C326.865 308.656 332.213 302.417 339.216 294.267C342.399 292.23 358.953 280.897 362.391 259.633C363.155 255.049 365.574 239.896 355.642 226.908Z" fill="#040844"/>
<path d="M185.779 377.671C170.372 368.121 154.073 356.661 137.647 342.909C132.045 338.197 126.697 333.486 121.603 328.775C105.432 342.654 92.9534 354.623 84.0401 363.664C74.7448 372.959 69.3968 378.944 64.8128 384.292C58.0641 392.314 52.8434 399.445 49.0234 404.793C50.5514 406.575 52.7161 409.249 55.5174 412.433C59.2101 416.635 75.6361 435.225 102.885 456.872C121.603 471.77 137.393 481.702 144.778 486.159C165.279 498.637 184.251 507.678 199.913 514.172C201.059 512.517 202.842 510.097 204.879 507.169C209.463 500.547 215.575 491.252 224.107 476.609C238.113 452.543 252.629 424.402 255.303 419.181C251.229 417.144 247.154 415.107 243.079 412.942C225.635 403.774 209.591 394.224 194.693 384.419C189.09 389.513 183.233 390.786 180.813 388.621C179.413 387.348 179.158 385.056 179.54 383.273C179.922 380.472 182.469 378.18 185.779 377.671Z" fill="#F4ECFF"/>
<path d="M313.367 213.665C300.889 244.225 286.245 273.767 269.692 302.289C269.437 302.799 270.201 303.308 270.456 302.799C287.137 274.276 301.78 244.48 314.259 213.92C314.513 213.283 313.495 213.156 313.367 213.665Z" fill="#170F40"/>
<path d="M197.749 371.686C202.205 373.087 205.261 376.907 205.643 381.491C205.643 382.127 206.662 382.127 206.662 381.491C206.28 376.397 202.842 372.195 198.003 370.667C197.367 370.54 197.112 371.431 197.749 371.686Z" fill="#170F40"/>
<path d="M197.112 370.667C191.891 373.341 186.543 376.143 181.832 379.835C178.903 382.255 176.738 385.438 178.521 389.258C178.776 389.767 179.667 389.385 179.285 388.749C176.611 383.146 183.869 379.326 187.689 376.907C190.872 374.869 194.183 373.087 197.494 371.431C198.13 371.177 197.621 370.413 197.112 370.667Z" fill="#170F40"/>
<path d="M183.233 388.876C188.963 387.603 194.183 385.438 198.895 382.127C199.404 381.745 198.895 380.981 198.385 381.363C193.674 384.547 188.453 386.839 182.851 387.985C182.341 388.112 182.596 389.003 183.233 388.876Z" fill="#170F40"/>
<path d="M79.8381 378.562C84.9314 373.851 90.0247 369.139 95.1181 364.428C95.6274 364.046 94.8634 363.282 94.4814 363.791C89.3881 368.503 84.2947 373.214 79.2014 377.925C78.6921 378.307 79.3287 378.944 79.8381 378.562Z" fill="#170F40"/>
<path d="M74.8718 416.507C87.4778 403.137 99.9564 389.64 112.562 376.27C114.218 374.487 111.544 371.813 109.888 373.596C97.2824 386.966 84.8038 400.463 72.1978 413.833C70.4151 415.616 73.0891 418.29 74.8718 416.507Z" fill="#FF9800"/>
<path d="M88.4969 431.151C94.0995 425.166 99.5749 419.054 105.05 412.815C106.706 411.032 104.032 408.231 102.376 410.141C97.0282 416.38 91.4255 422.492 85.8229 428.477C84.0402 430.259 86.8415 433.061 88.4969 431.151Z" fill="#FF9800"/>
<path d="M112.308 452.161C123.513 439.555 134.464 426.567 144.905 413.197C146.433 411.287 143.759 408.613 142.231 410.523C131.79 423.765 120.967 436.753 109.634 449.487C107.979 451.269 110.653 454.071 112.308 452.161Z" fill="#040844"/>
<path d="M137.138 468.332C140.958 463.748 144.778 459.164 148.598 454.58C150.126 452.67 147.452 449.996 145.924 451.906C142.104 456.49 138.284 461.074 134.464 465.658C132.936 467.568 135.61 470.242 137.138 468.332Z" fill="#FF9800"/>
<path d="M150.253 470.369C158.403 459.801 166.425 449.232 174.574 438.536C176.102 436.626 172.791 434.716 171.263 436.626C163.114 447.195 155.092 457.763 146.943 468.459C145.415 470.369 148.725 472.279 150.253 470.369Z" fill="#FF9800"/>
<path d="M179.667 489.979C188.962 475.972 197.876 461.711 206.534 447.322C207.808 445.157 204.497 443.247 203.224 445.412C194.565 459.801 185.524 474.062 176.356 488.069C174.956 490.106 178.266 492.016 179.667 489.979Z" fill="#040844"/>
<path d="M79.2015 380.981C84.8041 374.869 90.9161 369.267 97.5375 364.301C99.4475 362.773 97.5375 359.462 95.6275 360.99C88.7515 366.211 82.3848 371.941 76.5275 378.307C74.7448 380.09 77.5461 382.764 79.2015 380.981Z" fill="#040844"/>
<path d="M116.001 359.971C118.165 360.863 121.221 362.9 123.513 363.027C124.405 363.027 124.787 363.027 125.169 362.009C125.551 360.735 124.15 358.953 123.641 357.934C121.985 354.496 121.476 350.803 121.731 347.111C121.731 346.474 120.839 346.474 120.712 347.111C120.457 350.676 120.967 354.114 122.24 357.425C122.495 357.934 122.749 358.443 123.004 358.953C123.386 359.717 124.15 361.372 122.495 361.627C121.985 361.754 119.948 360.481 119.439 360.353C118.42 359.971 117.401 359.462 116.383 359.08C115.873 358.953 115.491 359.717 116.001 359.971Z" fill="#170F40"/>
<path d="M135.992 373.341C137.647 374.105 143.123 376.143 143.887 373.341C144.396 371.559 142.613 368.757 141.977 367.102C140.958 364.173 140.067 361.499 140.321 358.316C140.321 357.679 139.43 357.679 139.303 358.316C139.048 361.372 139.812 364.046 140.831 366.847C141.34 368.121 142.359 369.903 142.486 371.177C142.613 371.559 142.741 371.813 142.741 372.195C142.231 372.705 141.722 373.087 141.213 373.596C140.067 373.978 137.393 372.959 136.374 372.45C135.992 372.195 135.483 373.087 135.992 373.341Z" fill="#170F40"/>
<path d="M155.983 390.531C158.275 392.187 160.822 392.569 163.623 392.059C163.878 392.059 164.005 391.677 164.005 391.423C162.859 387.348 161.841 383.146 160.695 379.071C160.567 378.435 159.676 378.689 159.803 379.326C160.567 382.382 161.331 385.311 162.223 388.367C162.605 389.895 163.369 391.168 161.331 391.423C159.676 391.55 157.893 390.659 156.62 389.767C155.983 389.258 155.474 390.149 155.983 390.531Z" fill="#170F40"/>
<path d="M181.45 400.718C185.397 402.628 189.981 400.973 193.801 403.01C194.311 403.265 194.82 402.501 194.311 402.246C190.363 400.209 185.907 401.864 181.959 399.954C181.323 399.699 180.941 400.463 181.45 400.718Z" fill="#170F40"/>
<path d="M189.217 394.097C188.199 399.317 187.817 404.538 187.944 409.886C187.944 410.523 188.963 410.523 188.963 409.886C188.835 404.665 189.217 399.445 190.236 394.351C190.236 393.715 189.345 393.46 189.217 394.097Z" fill="#170F40"/>
<path d="M202.205 412.942C204.37 414.215 207.171 413.833 209.59 413.706C212.901 413.579 216.339 413.197 219.65 412.687C220.286 412.56 220.032 411.669 219.395 411.796C216.594 412.178 213.665 412.56 210.864 412.687C208.444 412.815 204.879 413.451 202.714 412.178C202.205 411.796 201.696 412.56 202.205 412.942Z" fill="#170F40"/>
<path d="M209.973 404.156C210.1 411.032 210.482 417.908 210.864 424.911C210.864 425.548 211.883 425.548 211.883 424.911C211.501 418.035 211.119 411.159 210.991 404.156C210.864 403.519 209.973 403.519 209.973 404.156Z" fill="#170F40"/>
<path d="M316.423 212.392C316.296 214.684 316.296 218.122 316.933 222.069C317.951 229.964 320.498 235.694 321.517 238.241C324.7 245.626 323.172 244.48 329.921 265.999C339.343 296.177 348.766 321.262 348.766 321.262C357.679 344.564 364.046 361.117 375.633 381.873C380.599 390.786 385.183 398.044 388.367 402.755C392.059 403.01 397.28 403.392 403.519 403.519C413.579 403.647 427.076 403.774 443.884 400.336C463.875 396.261 479.155 389.003 488.323 383.91C494.817 380.345 500.038 376.779 503.858 374.105C502.712 367.102 501.057 355.769 499.401 341.763C494.945 304.327 495.454 287.773 491.889 255.685C490.615 244.098 488.323 226.653 484.249 205.261C480.938 203.479 476.227 201.314 470.369 198.895C463.748 196.221 439.427 187.053 406.193 187.307C379.963 187.435 359.971 193.419 351.185 196.348C336.415 201.187 324.827 207.299 316.423 212.392Z" fill="#040844"/>
<path d="M316.551 222.197C334.25 284.335 353.987 346.601 386.712 402.755C386.966 403.265 387.858 402.755 387.476 402.246C354.751 346.219 335.014 284.081 317.315 221.942C317.188 221.305 316.296 221.56 316.551 222.197Z" fill="white"/>
<path d="M390.404 402.755C430.387 407.976 471.261 397.789 504.24 374.487C504.75 374.105 504.24 373.341 503.731 373.723C470.879 396.898 430.26 407.085 390.404 401.864C389.768 401.737 389.768 402.628 390.404 402.755Z" fill="#170F40"/>
<path d="M493.416 442.611C492.652 443.629 491.379 445.03 489.724 446.685C488.705 447.577 488.068 448.213 485.012 450.76C482.466 452.925 480.046 455.344 477.5 457.509C476.863 458.018 475.462 459.164 474.444 461.074C474.189 461.711 473.043 463.621 473.68 464.385C474.189 464.894 475.59 464.385 478.773 462.984C481.574 461.838 483.739 460.947 485.012 460.437C484.63 461.074 484.121 461.965 483.484 462.857C483.102 463.493 481.829 465.658 480.046 468.205C475.59 474.826 471.133 479.919 469.86 481.32C468.714 482.721 467.695 483.739 466.931 484.503C467.44 485.14 468.204 486.031 469.223 487.177C472.406 490.615 474.444 492.78 477.627 494.181C478.646 494.563 480.301 495.199 482.466 495.327C484.248 494.69 486.668 493.671 489.214 491.761C490.36 490.997 493.544 488.578 496.854 483.994C499.019 480.811 500.165 478.264 503.094 469.987C504.749 465.531 506.404 460.565 508.314 455.344C508.824 453.943 510.097 449.869 508.569 445.285C507.932 443.375 506.404 438.791 502.457 437.899C499.401 436.753 495.581 438.791 493.416 442.611Z" fill="#F7CD5B"/>
<path d="M480.302 203.988C476.736 204.625 473.68 205.643 471.134 206.917C449.487 216.849 444.266 244.225 443.248 249.828C461.456 274.021 479.665 298.342 497.874 322.79C499.784 325.337 501.694 328.011 503.604 330.557C502.076 345.583 500.675 360.481 499.147 375.506C496.982 397.789 494.818 420.073 492.653 442.356C494.308 442.738 496.473 443.502 498.765 444.903C500.675 446.049 503.731 447.831 506.278 451.524C507.678 453.689 508.442 455.853 508.824 457.636C511.244 452.543 513.536 447.322 515.828 442.101C522.704 426.694 528.306 412.942 532.763 401.355C540.658 381.109 538.366 384.801 547.534 360.608C550.335 353.095 552.372 345.328 554.919 337.815C556.574 332.722 558.102 328.52 557.975 322.79C557.848 317.187 556.32 312.985 555.174 309.929C549.826 296.559 542.95 285.609 540.148 281.152C529.07 263.835 523.595 255.176 521.048 251.611C512.644 239.769 504.622 230.219 498.383 223.088C491.634 215.448 485.395 209.081 480.302 203.988Z" fill="#040844"/>
<path d="M442.865 250.21C464.003 276.186 483.994 303.181 502.712 330.939C503.094 331.449 503.858 330.939 503.476 330.43C484.758 302.544 464.639 275.549 443.502 249.446C443.12 249.064 442.483 249.701 442.865 250.21Z" fill="white"/>
<path d="M494.053 443.884C497.237 444.521 500.165 445.794 502.585 447.959C504.749 449.869 508.187 453.561 507.805 456.745C507.678 457.381 508.696 457.381 508.824 456.745C509.206 453.561 506.15 449.869 503.985 447.831C501.311 445.285 498 443.757 494.435 442.993C493.799 442.865 493.544 443.884 494.053 443.884Z" fill="#170F40"/>
<path d="M492.398 443.629C487.432 447.959 482.466 452.288 477.628 456.745C475.972 458.4 471.897 461.838 473.425 464.512C473.553 464.639 473.68 464.767 473.808 464.767C476.482 464.767 479.156 463.366 481.448 462.22C481.957 461.965 481.575 461.074 480.938 461.456C480.429 461.711 477.5 463.239 476.482 463.239C473.808 463.111 474.826 461.201 475.972 459.801C477.373 458.018 479.283 456.617 480.938 455.089C485.013 451.524 488.96 447.959 493.035 444.393C493.544 443.884 492.78 443.247 492.398 443.629Z" fill="#170F40"/>
<path d="M469.478 486.286C477.245 485.522 484.249 478.137 488.323 472.152C488.705 471.643 487.814 471.133 487.559 471.643C483.612 477.373 476.863 484.631 469.478 485.267C468.841 485.395 468.841 486.413 469.478 486.286Z" fill="#170F40"/>
<path d="M472.534 489.342C480.174 487.432 486.795 483.103 491.761 476.863C492.143 476.354 491.507 475.717 491.125 476.227C486.286 482.339 479.919 486.541 472.279 488.451C471.643 488.578 471.897 489.469 472.534 489.342Z" fill="#170F40"/>
<path d="M475.081 492.143C478.137 492.907 480.684 491.125 483.23 489.597C486.032 487.941 488.451 486.031 490.361 483.357C490.743 482.848 489.852 482.339 489.597 482.848C487.942 485.14 485.904 486.795 483.612 488.196C481.193 489.724 478.392 491.761 475.336 491.125C474.826 491.125 474.572 492.016 475.081 492.143Z" fill="#170F40"/>
<path d="M351.313 181.323C350.421 181.195 348.129 180.813 345.837 179.158C341.381 175.975 340.489 170.499 340.362 169.481C340.107 168.207 339.216 162.095 343.291 157.129C346.601 153.055 351.313 152.291 352.459 152.036C358.189 151.145 362.518 154.073 368.375 157.893C373.723 161.459 377.543 165.151 385.183 172.791C387.348 174.956 389.003 176.739 390.277 177.885C390.404 179.795 390.404 183.233 388.749 187.18C387.73 189.727 385.565 194.565 381.618 195.966C373.341 199.022 364.81 183.615 351.313 181.323Z" fill="#040844"/>
<path d="M350.039 179.922C349.148 182.469 349.403 184.633 349.912 187.689C350.421 191.127 350.803 194.438 353.095 198.131C353.987 199.659 357.297 204.879 362.773 206.153C365.701 206.917 370.413 206.662 371.177 206.662C371.941 206.662 372.45 206.662 372.832 206.535C373.341 207.044 373.723 207.681 374.233 208.19C372.705 208.317 371.686 209.336 371.559 210.227C371.431 211.373 372.705 212.265 372.832 212.265C374.742 213.538 377.798 212.265 378.689 211.755C383.019 209.718 384.801 205.389 385.438 203.606C384.801 202.587 384.165 201.569 383.528 200.55C384.037 200.041 384.674 199.277 385.438 198.385C386.075 197.621 387.348 195.711 388.239 193.037C389.003 190.745 389.513 189.345 389.003 187.689C388.621 186.161 387.73 185.143 386.966 184.251C382 178.903 379.453 176.229 379.071 175.975C376.652 174.192 373.087 171.645 367.739 170.881C365.447 170.627 360.608 169.863 356.024 172.791C354.751 173.555 351.44 175.847 350.039 179.922Z" fill="#F7CD5B"/>
<path d="M372.705 207.299C373.214 208.063 373.851 208.699 374.36 209.463C374.742 209.973 375.506 209.463 375.124 208.954C374.615 208.19 373.978 207.553 373.469 206.789C373.087 206.28 372.323 206.789 372.705 207.299Z" fill="#170F40"/>
<path d="M362.391 182.214C360.608 186.543 358.443 194.056 363.919 196.603C364.428 196.857 364.937 196.093 364.428 195.839C359.335 193.547 361.627 186.543 363.282 182.596C363.537 181.959 362.645 181.705 362.391 182.214Z" fill="#170F40"/>
<path d="M356.788 186.416C357.421 186.416 357.934 185.504 357.934 184.379C357.934 183.253 357.421 182.341 356.788 182.341C356.155 182.341 355.642 183.253 355.642 184.379C355.642 185.504 356.155 186.416 356.788 186.416Z" fill="#170F40"/>
<path d="M370.158 186.416C370.791 186.416 371.304 185.504 371.304 184.379C371.304 183.253 370.791 182.341 370.158 182.341C369.525 182.341 369.012 183.253 369.012 184.379C369.012 185.504 369.525 186.416 370.158 186.416Z" fill="#170F40"/>
</svg>
