<svg width="1445" height="799" viewBox="0 0 1445 799" fill="none" xmlns="http://www.w3.org/2000/svg">
<rect width="1445" height="799" rx="25" fill="#170F40"/>
<mask id="mask0_1_736" style="mask-type:alpha" maskUnits="userSpaceOnUse" x="0" y="0" width="1445" height="799">
<rect width="1445" height="799" rx="25" fill="white"/>
</mask>
<g mask="url(#mask0_1_736)">
<path fill-rule="evenodd" clip-rule="evenodd" d="M1573.73 1274.87C1946.41 1274.87 2248.52 977.67 2248.52 611.06C2248.52 244.45 1946.41 -52.7463 1573.73 -52.7463C1201.06 -52.7463 898.952 244.45 898.952 611.06C898.952 977.67 1201.06 1274.87 1573.73 1274.87ZM1573.73 1050.99C1326.75 1050.99 1126.53 854.024 1126.53 611.06C1126.53 368.096 1326.75 171.134 1573.73 171.134C1820.72 171.134 2020.93 368.096 2020.93 611.06C2020.93 854.024 1820.72 1050.99 1573.73 1050.99Z" fill="url(#paint0_linear_1_736)"/>
<path fill-rule="evenodd" clip-rule="evenodd" d="M-138.826 384.94C233.846 384.94 535.957 87.7443 535.957 -278.866C535.957 -645.476 233.846 -942.672 -138.826 -942.672C-511.497 -942.672 -813.608 -645.476 -813.608 -278.866C-813.608 87.7443 -511.497 384.94 -138.826 384.94ZM-138.826 161.06C-385.807 161.06 -586.025 -35.9016 -586.025 -278.866C-586.025 -521.83 -385.807 -718.791 -138.826 -718.791C108.156 -718.791 308.374 -521.83 308.374 -278.866C308.374 -35.9016 108.156 161.06 -138.826 161.06Z" fill="url(#paint1_linear_1_736)"/>
</g>
<defs>
<linearGradient id="paint0_linear_1_736" x1="4297.37" y1="-941.466" x2="1140.97" y2="-941.466" gradientUnits="userSpaceOnUse">
<stop stop-color="#236ACF"/>
<stop offset="1" stop-color="white" stop-opacity="0.01"/>
</linearGradient>
<linearGradient id="paint1_linear_1_736" x1="179.803" y1="-1476" x2="-2254.05" y2="-1476" gradientUnits="userSpaceOnUse">
<stop stop-color="white" stop-opacity="0.01"/>
<stop offset="1" stop-color="#1565D8"/>
</linearGradient>
</defs>
</svg>
